<svg width="15" height="14" viewBox="0 0 15 14" fill="none" xmlns="http://www.w3.org/2000/svg">
<g clip-path="url(#clip0_7_202)">
<path d="M11.6207 2.82666H3.39644C3.16934 2.82666 2.98523 3.01077 2.98523 3.23787V11.4621C2.98523 11.6892 3.16934 11.8733 3.39644 11.8733H11.6207C11.8478 11.8733 12.0319 11.6892 12.0319 11.4621V3.23787C12.0319 3.01077 11.8478 2.82666 11.6207 2.82666Z" stroke="black" stroke-width="0.822425" stroke-linecap="round" stroke-linejoin="round"/>
<path d="M9.97583 2.00415V3.649" stroke="black" stroke-width="0.822425" stroke-linecap="round" stroke-linejoin="round"/>
<path d="M5.04132 2.00415V3.649" stroke="black" stroke-width="0.822425" stroke-linecap="round" stroke-linejoin="round"/>
<path d="M2.98523 5.29395H12.0319" stroke="black" stroke-width="0.822425" stroke-linecap="round" stroke-linejoin="round"/>
<path d="M7.5086 8.17236C7.84926 8.17236 8.12542 7.8962 8.12542 7.55554C8.12542 7.21488 7.84926 6.93872 7.5086 6.93872C7.16794 6.93872 6.89178 7.21488 6.89178 7.55554C6.89178 7.8962 7.16794 8.17236 7.5086 8.17236Z" fill="black"/>
<path d="M9.77026 8.17236C10.1109 8.17236 10.3871 7.8962 10.3871 7.55554C10.3871 7.21488 10.1109 6.93872 9.77026 6.93872C9.4296 6.93872 9.15344 7.21488 9.15344 7.55554C9.15344 7.8962 9.4296 8.17236 9.77026 8.17236Z" fill="black"/>
<path d="M5.24695 10.2285C5.58761 10.2285 5.86376 9.95235 5.86376 9.61169C5.86376 9.27103 5.58761 8.99487 5.24695 8.99487C4.90629 8.99487 4.63013 9.27103 4.63013 9.61169C4.63013 9.95235 4.90629 10.2285 5.24695 10.2285Z" fill="black"/>
<path d="M7.5086 10.2285C7.84926 10.2285 8.12542 9.95235 8.12542 9.61169C8.12542 9.27103 7.84926 8.99487 7.5086 8.99487C7.16794 8.99487 6.89178 9.27103 6.89178 9.61169C6.89178 9.95235 7.16794 10.2285 7.5086 10.2285Z" fill="black"/>
<path d="M9.77026 10.2285C10.1109 10.2285 10.3871 9.95235 10.3871 9.61169C10.3871 9.27103 10.1109 8.99487 9.77026 8.99487C9.4296 8.99487 9.15344 9.27103 9.15344 9.61169C9.15344 9.95235 9.4296 10.2285 9.77026 10.2285Z" fill="black"/>
</g>
<defs>
<clipPath id="clip0_7_202">
<rect width="13.1588" height="13.1588" fill="white" transform="translate(0.929199 0.770508)"/>
</clipPath>
</defs>
</svg>
