<svg width="19" height="20" viewBox="0 0 19 20" fill="none" xmlns="http://www.w3.org/2000/svg">
<g clip-path="url(#clip0_7_148)">
<path d="M15.1406 8.8125C16.2883 8.8125 17.2188 7.88209 17.2188 6.73438C17.2188 5.58666 16.2883 4.65625 15.1406 4.65625C13.9929 4.65625 13.0625 5.58666 13.0625 6.73438C13.0625 7.88209 13.9929 8.8125 15.1406 8.8125Z" stroke="black" stroke-width="1.1875" stroke-linecap="round" stroke-linejoin="round"/>
<path d="M3.5625 15.9375H1.1875C1.03003 15.9375 0.879005 15.8749 0.767655 15.7636C0.656306 15.6522 0.59375 15.5012 0.59375 15.3438V12.375C0.59375 12.2175 0.656306 12.0665 0.767655 11.9552C0.879005 11.8438 1.03003 11.7812 1.1875 11.7812H3.5625" stroke="black" stroke-width="1.1875" stroke-linecap="round" stroke-linejoin="round"/>
<path d="M8.3125 12.375H10.6875L15.6602 11.2313C15.843 11.1812 16.0349 11.1739 16.221 11.2101C16.4071 11.2462 16.5823 11.3248 16.7331 11.4396C16.8839 11.5545 17.0061 11.7026 17.0904 11.8725C17.1746 12.0423 17.2185 12.2292 17.2188 12.4188C17.2188 12.6477 17.1551 12.8721 17.0348 13.0667C16.9144 13.2614 16.7422 13.4187 16.5374 13.5209L13.6562 14.75L8.90625 15.9375H3.5625V11.7813L5.41797 9.92579C5.58381 9.76052 5.78061 9.62956 5.99711 9.54042C6.21361 9.45127 6.44556 9.40568 6.67969 9.40626H10.3906C10.7843 9.40626 11.1619 9.56264 11.4402 9.84102C11.7186 10.1194 11.875 10.4969 11.875 10.8906C11.875 11.2843 11.7186 11.6619 11.4402 11.9402C11.1619 12.2186 10.7843 12.375 10.3906 12.375H8.3125Z" stroke="black" stroke-width="1.1875" stroke-linecap="round" stroke-linejoin="round"/>
<path d="M13.0624 6.83003C12.6591 7.02079 12.2051 7.07667 11.7675 6.98942C11.33 6.90216 10.9321 6.6764 10.6328 6.34553C10.3335 6.01466 10.1486 5.59624 10.1055 5.15216C10.0624 4.70808 10.1634 4.26192 10.3935 3.87967C10.6236 3.49742 10.9706 3.19937 11.3832 3.0296C11.7958 2.85984 12.2521 2.82737 12.6846 2.93701C13.1171 3.04665 13.5028 3.29257 13.7847 3.63839C14.0666 3.98422 14.2297 4.41159 14.2499 4.85729" stroke="black" stroke-width="1.1875" stroke-linecap="round" stroke-linejoin="round"/>
</g>
<defs>
<clipPath id="clip0_7_148">
<rect width="19" height="19" fill="white" transform="translate(0 0.5)"/>
</clipPath>
</defs>
</svg>
