<svg width="19" height="19" viewBox="0 0 19 19" fill="none" xmlns="http://www.w3.org/2000/svg">
<g clip-path="url(#clip0_13_17189)">
<path d="M7.125 14.25C7.125 14.8799 7.37522 15.484 7.82062 15.9294C8.26602 16.3748 8.87011 16.625 9.5 16.625C10.1299 16.625 10.734 16.3748 11.1794 15.9294C11.6248 15.484 11.875 14.8799 11.875 14.25" stroke="black" stroke-width="1.1875" stroke-linecap="round" stroke-linejoin="round"/>
<path d="M4.15625 7.71875C4.15625 6.3015 4.71925 4.9423 5.7214 3.94015C6.72354 2.938 8.08275 2.375 9.5 2.375C10.9172 2.375 12.2765 2.938 13.2786 3.94015C14.2807 4.9423 14.8437 6.3015 14.8437 7.71875C14.8437 10.3773 15.4598 12.5133 15.9496 13.3594C16.0016 13.4495 16.0291 13.5517 16.0292 13.6557C16.0292 13.7598 16.002 13.862 15.9501 13.9522C15.8983 14.0424 15.8236 14.1174 15.7336 14.1697C15.6437 14.2219 15.5415 14.2496 15.4375 14.25H3.5625C3.45858 14.2494 3.35664 14.2215 3.26688 14.1691C3.17711 14.1168 3.10266 14.0417 3.05097 13.9516C2.99928 13.8614 2.97216 13.7593 2.97232 13.6554C2.97248 13.5514 2.99991 13.4494 3.05187 13.3594C3.54098 12.5133 4.15625 10.3765 4.15625 7.71875Z" stroke="black" stroke-width="1.1875" stroke-linecap="round" stroke-linejoin="round"/>
</g>
<defs>
<clipPath id="clip0_13_17189">
<rect width="19" height="19" fill="white"/>
</clipPath>
</defs>
</svg>
