<svg width="16" height="16" viewBox="0 0 16 16" fill="none" xmlns="http://www.w3.org/2000/svg">
<path d="M8.14414 13.4921C8.04993 13.4921 7.955 13.4921 7.86289 13.4921L5.60938 14.75C4.73211 14.4549 3.91841 13.9969 3.21102 13.4L3.20258 10.8688C3.15266 10.79 3.10555 10.7105 3.06196 10.629L0.821097 9.35281C0.644595 8.46005 0.644595 7.54136 0.821097 6.64859L3.05985 5.37594C3.10555 5.29508 3.15266 5.21492 3.20047 5.13617L3.21172 2.60492C3.91848 2.00631 4.73196 1.54661 5.60938 1.25L7.85938 2.50789C7.9536 2.50789 8.04852 2.50789 8.14063 2.50789L10.3906 1.25C11.2679 1.54509 12.0816 2.00311 12.789 2.6L12.7974 5.13125C12.8473 5.21 12.8945 5.28945 12.9381 5.37102L15.1775 6.64648C15.354 7.53925 15.354 8.45794 15.1775 9.3507L12.9388 10.6234C12.8931 10.7042 12.8459 10.7844 12.7981 10.8631L12.7869 13.3944C12.0806 13.9931 11.2676 14.453 10.3906 14.75L8.14414 13.4921Z" stroke="black" stroke-width="1.125" stroke-linecap="round" stroke-linejoin="round"/>
</svg>
