<svg width="13" height="13" viewBox="0 0 13 13" fill="none" xmlns="http://www.w3.org/2000/svg">
<path fill-rule="evenodd" clip-rule="evenodd" d="M10.0019 10.2208C10.0355 10.2573 10.0783 10.2839 10.1257 10.298C10.1736 10.3121 10.2244 10.313 10.2727 10.3007C10.3206 10.2883 10.3643 10.2633 10.3993 10.2283C10.4343 10.1933 10.4594 10.1496 10.4718 10.1017C10.484 10.0551 10.4831 10.0061 10.4694 9.96001C10.4544 9.91253 10.427 9.86988 10.3901 9.83644L10.3849 9.8313L9.28665 8.73309C9.23214 8.68858 9.16378 8.66453 9.09341 8.66512C9.02531 8.66512 8.95994 8.69191 8.91143 8.7397C8.86219 8.78846 8.83314 8.854 8.8301 8.92324C8.82706 8.99248 8.85024 9.06031 8.89503 9.1132L10.0013 10.2202L10.0019 10.2208ZM6.78702 2.67578V1.13647C6.78703 1.13037 6.78736 1.12428 6.78799 1.11822C6.78737 1.06841 6.77477 1.01948 6.75126 0.975555C6.72874 0.931196 6.69447 0.893875 6.65219 0.867669C6.60925 0.842262 6.56027 0.828857 6.51038 0.828857C6.46049 0.828857 6.41151 0.842262 6.36857 0.867669C6.32 0.897304 6.27972 0.93876 6.2515 0.988168C6.22559 1.03076 6.2121 1.07975 6.21256 1.12961L6.23436 2.66304C6.23877 2.73329 6.26988 2.79918 6.32131 2.84723C6.37275 2.89527 6.44061 2.92182 6.51099 2.92143C6.58171 2.922 6.65002 2.89574 6.70215 2.84795C6.75058 2.8032 6.7808 2.74216 6.78702 2.67651V2.67578ZM2.85608 6.61516C2.92641 6.61097 2.99249 6.58007 3.0408 6.52879C3.08911 6.47751 3.11602 6.40972 3.11602 6.33926C3.11602 6.2688 3.08911 6.20101 3.0408 6.14973C2.99249 6.09845 2.92641 6.06755 2.85608 6.06336L1.27991 6.06238C1.23245 6.06029 1.18531 6.07121 1.14361 6.09398C1.10003 6.11847 1.06373 6.15409 1.03842 6.19721C1.01316 6.24007 0.999895 6.28893 1 6.33868C1.00011 6.38842 1.01358 6.43723 1.03902 6.47998C1.06446 6.52273 1.10092 6.55786 1.1446 6.58168C1.18827 6.60551 1.23754 6.61716 1.28726 6.61541H2.85559L2.85608 6.61516ZM3.73656 3.93331C3.78943 3.97818 3.85729 4.00145 3.92657 3.99848C3.99586 3.9955 4.06147 3.9665 4.11031 3.91727C4.15699 3.87229 4.18394 3.81064 4.18525 3.74582C4.18472 3.67704 4.15937 3.61077 4.11386 3.5592L3.02054 2.43649C2.98669 2.39991 2.94357 2.37317 2.89575 2.35911C2.84793 2.34506 2.79719 2.34421 2.74893 2.35665C2.70098 2.36893 2.65726 2.39399 2.62243 2.42914L2.6152 2.43588C2.58375 2.47003 2.56132 2.51149 2.54993 2.5565C2.53503 2.61273 2.53402 2.67173 2.54699 2.72843C2.55645 2.77159 2.57843 2.81099 2.61018 2.84171L3.73681 3.93282L3.73656 3.93331ZM3.71366 8.7337L2.61569 9.83106L2.61043 9.8362C2.57896 9.86504 2.55654 9.90239 2.54589 9.94372C2.53416 9.99557 2.53551 10.0495 2.54981 10.1007V10.1014C2.56225 10.1493 2.58725 10.193 2.62224 10.228C2.65722 10.263 2.70092 10.288 2.74881 10.3004C2.80029 10.3148 2.85454 10.3161 2.90666 10.3042C2.94798 10.2937 2.98532 10.2713 3.01405 10.2398L4.12647 9.1132C4.16145 9.07396 4.18418 9.02534 4.19186 8.97334C4.19955 8.92134 4.19185 8.86822 4.16972 8.82054C4.14759 8.77286 4.11199 8.73269 4.06732 8.70499C4.02264 8.67728 3.97084 8.66326 3.91829 8.66463C3.84443 8.66312 3.77231 8.68718 3.71415 8.73272L3.71366 8.7337ZM6.23448 11.5417C6.2328 11.5915 6.24451 11.6409 6.2684 11.6846L6.2733 11.6945C6.29686 11.7338 6.32981 11.7666 6.36918 11.7899L6.37898 11.7962C6.42135 11.8185 6.4687 11.8298 6.5166 11.8288C6.5645 11.8278 6.61137 11.8147 6.6528 11.7906C6.6965 11.7666 6.73344 11.7319 6.7602 11.6899C6.78081 11.6539 6.79056 11.6127 6.78824 11.5713L6.78738 9.99564C6.78337 9.92518 6.75245 9.85895 6.70102 9.81062C6.64959 9.76228 6.58157 9.73554 6.51099 9.73591C6.4356 9.73775 6.36365 9.76787 6.30942 9.82028C6.25474 9.86912 6.22042 9.93675 6.21329 10.0097L6.23448 11.5417ZM11.7345 6.61565C11.7842 6.61728 11.8334 6.60557 11.877 6.58172C11.9206 6.55788 11.957 6.52277 11.9825 6.48007C12.0079 6.43736 12.0214 6.38862 12.0216 6.33891C12.0218 6.28921 12.0087 6.24036 11.9836 6.19745C11.9571 6.15512 11.9195 6.12086 11.8749 6.09838C11.8276 6.07324 11.7745 6.06087 11.7209 6.0625H11.714V6.06312H10.1534C10.0878 6.06937 10.0268 6.09953 9.98197 6.14786C9.93394 6.19993 9.90746 6.2683 9.90788 6.33914C9.90763 6.40945 9.93428 6.4772 9.98236 6.52849C10.0304 6.57979 10.0963 6.61076 10.1665 6.61504H11.7347L11.7345 6.61565ZM9.28751 3.94457L10.3851 2.84697L10.3904 2.84183C10.4275 2.80651 10.4544 2.76177 10.4681 2.71239C10.4832 2.66136 10.4846 2.60724 10.4721 2.55552C10.4596 2.50761 10.4346 2.4639 10.3996 2.4289C10.3646 2.39389 10.3208 2.36887 10.2729 2.3564C10.2247 2.34393 10.174 2.34478 10.1262 2.35886C10.0784 2.37294 10.0353 2.39973 10.0016 2.43637L8.88719 3.55907C8.84541 3.60729 8.82352 3.66958 8.82596 3.73333C8.83051 3.80314 8.8611 3.86869 8.91168 3.91702C8.96334 3.96885 9.03255 3.99943 9.10566 4.00274C9.17106 4.00622 9.23547 3.98566 9.28677 3.94494L9.28751 3.94457Z" fill="black" fill-opacity="0.5" stroke="black" stroke-opacity="0.5" stroke-width="0.5"/>
</svg>
