<svg width="29" height="28" viewBox="0 0 29 28" fill="none" xmlns="http://www.w3.org/2000/svg">
<g clip-path="url(#clip0_13_17687)">
<path d="M12.75 22.75H8.37501C7.50653 22.7489 6.64821 22.5632 5.85699 22.2051C5.06578 21.847 4.35977 21.3247 3.7858 20.6729C3.21184 20.0211 2.78305 19.2547 2.52789 18.4245C2.27273 17.5944 2.19702 16.7195 2.3058 15.8578C2.41458 14.9962 2.70536 14.1675 3.15884 13.4268C3.61231 12.6861 4.21812 12.0504 4.93607 11.5617C5.65401 11.073 6.46767 10.7426 7.32306 10.5923C8.17846 10.4421 9.05601 10.4755 9.89751 10.6903" stroke="#0F6C42" stroke-width="1.75" stroke-linecap="round" stroke-linejoin="round"/>
<path d="M13.625 17.5L17.125 14L20.625 17.5" stroke="#0F6C42" stroke-width="1.75" stroke-linecap="round" stroke-linejoin="round"/>
<path d="M17.125 22.75V14" stroke="#0F6C42" stroke-width="1.75" stroke-linecap="round" stroke-linejoin="round"/>
<path d="M9.25 13.9999C9.25037 12.4224 9.67717 10.8744 10.4852 9.51968C11.2933 8.16492 12.4526 7.0538 13.8404 6.3039C15.2282 5.554 16.7929 5.19322 18.3689 5.25974C19.945 5.32625 21.4737 5.81758 22.7934 6.68174C24.1131 7.5459 25.1747 8.75074 25.8657 10.1688C26.5567 11.5868 26.8516 13.1653 26.7191 14.7371C26.5865 16.309 26.0315 17.8158 25.1128 19.0981C24.1941 20.3804 22.9458 21.3905 21.5 22.0215" stroke="#0F6C42" stroke-width="1.75" stroke-linecap="round" stroke-linejoin="round"/>
</g>
<defs>
<clipPath id="clip0_13_17687">
<rect width="28" height="28" fill="white" transform="translate(0.5)"/>
</clipPath>
</defs>
</svg>
